<?xml version="1.0" encoding="UTF-8"?>
<!DOCTYPE svg PUBLIC "-//W3C//DTD SVG 1.1//EN" "http://www.w3.org/Graphics/SVG/1.1/DTD/svg11.dtd">
<svg xmlns="http://www.w3.org/2000/svg" version="1.1" width="535px" height="898px" style="shape-rendering:geometricPrecision; text-rendering:geometricPrecision; image-rendering:optimizeQuality; fill-rule:evenodd; clip-rule:evenodd" xmlns:xlink="http://www.w3.org/1999/xlink">
<g><path style="opacity:0.983" fill="#1c1c1c" d="M 377.5,435.5 C 377.672,434.508 377.338,433.842 376.5,433.5C 375.411,426.883 375.244,420.217 376,413.5C 377.238,394.122 378.904,374.788 381,355.5C 386.354,334.085 392.02,312.751 398,291.5C 403.49,264.719 409.49,238.052 416,211.5C 422.802,190.759 429.802,170.092 437,149.5C 446.425,131.559 454.092,112.892 460,93.5C 473.588,68.6587 486.921,43.6587 500,18.5C 502.865,16.913 505.032,17.5797 506.5,20.5C 493.603,45.2939 480.436,69.9606 467,94.5C 463.469,104.092 460.136,113.759 457,123.5C 450.845,134.809 445.512,146.475 441,158.5C 424.607,203.406 412.273,249.406 404,296.5C 398.198,316.04 392.865,335.707 388,355.5C 385.094,380.427 383.427,405.427 383,430.5C 386.5,433.349 386.334,435.683 382.5,437.5C 380.7,437.098 379.033,436.431 377.5,435.5 Z"/></g>
<g><path style="opacity:0.981" fill="#1c1c1c" d="M 27.5,51.5 C 31.1916,50.9712 34.3583,51.9712 37,54.5C 44.2096,67.7005 52.2096,80.3671 61,92.5C 66.9266,105.365 74.5932,117.032 84,127.5C 88.4486,136.179 92.1153,145.179 95,154.5C 101,165.167 107,175.833 113,186.5C 115.869,195.441 118.536,204.441 121,213.5C 127.199,225.9 132.865,238.566 138,251.5C 140.56,263.86 143.226,276.193 146,288.5C 154.377,304.296 160.377,320.963 164,338.5C 167.333,345.833 170.667,353.167 174,360.5C 174.997,376.488 178.664,391.821 185,406.5C 187.177,416.208 189.51,425.875 192,435.5C 197.285,438.265 197.785,441.765 193.5,446C 190.196,447.042 188.029,445.875 187,442.5C 183.531,430.957 180.531,419.29 178,407.5C 171.781,393.86 168.448,379.527 168,364.5C 165.215,356.929 161.881,349.595 158,342.5C 154.044,323.965 147.711,306.298 139,289.5C 136.452,278.214 134.119,266.88 132,255.5C 127.822,244.143 122.822,233.143 117,222.5C 113.178,210.88 109.512,199.214 106,187.5C 99.4934,177.157 93.4934,166.49 88,155.5C 85.392,147.675 82.392,140.009 79,132.5C 74.3333,126.5 69.6667,120.5 65,114.5C 54.461,95.307 43.1277,76.6403 31,58.5C 26.9691,62.8209 24.6358,62.1542 24,56.5C 24.9973,54.6769 26.1639,53.0103 27.5,51.5 Z"/></g>
<g><path style="opacity:0.988" fill="#1e1e1e" d="M 376.5,433.5 C 376.328,434.492 376.662,435.158 377.5,435.5C 377.703,437.39 377.037,438.89 375.5,440C 362.534,440.938 349.701,440.105 337,437.5C 321.729,439.274 306.562,438.774 291.5,436C 285.833,435.333 280.167,435.333 274.5,436C 258.687,439.471 242.687,441.471 226.5,442C 218.133,444.067 209.8,446.234 201.5,448.5C 197.658,447.036 196.991,444.869 199.5,442C 216.635,435.906 234.302,432.906 252.5,433C 259.881,431.924 267.215,430.59 274.5,429C 283.631,428.007 292.631,428.674 301.5,431C 313.344,431.684 325.178,431.517 337,430.5C 342.862,431.09 348.696,431.923 354.5,433C 361.931,433.236 369.264,433.402 376.5,433.5 Z"/></g>
<g><path style="opacity:0.993" fill="#101010" d="M 400.5,570.5 C 405.892,571.032 411.226,571.032 416.5,570.5C 428.209,573.036 436.042,580.036 440,591.5C 441.376,598.37 439.709,604.37 435,609.5C 424.472,620.454 411.639,625.287 396.5,624C 390.741,621.342 387.241,616.842 386,610.5C 384.069,600.819 384.069,591.152 386,581.5C 389.27,575.724 394.104,572.058 400.5,570.5 Z M 400.5,577.5 C 401.239,577.369 401.906,577.536 402.5,578C 398.609,582.893 395.109,588.06 392,593.5C 390.051,585.458 392.884,580.124 400.5,577.5 Z M 415.5,591.5 C 415.461,590.244 415.961,589.244 417,588.5C 417.585,589.998 417.085,590.998 415.5,591.5 Z M 426.5,602.5 C 424.674,607.371 421.34,609.704 416.5,609.5C 419.862,607.157 423.196,604.824 426.5,602.5 Z M 403.5,603.5 C 404.674,604.514 405.34,605.847 405.5,607.5C 403.896,606.713 403.229,605.38 403.5,603.5 Z"/></g>
<g><path style="opacity:0.993" fill="#101010" d="M 135.5,580.5 C 157.529,586.232 163.695,599.566 154,620.5C 146.725,630.551 136.892,634.717 124.5,633C 118.039,628.599 114.205,622.432 113,614.5C 109.378,595.357 116.878,584.024 135.5,580.5 Z M 137.5,610.5 C 136.209,610.737 135.209,610.404 134.5,609.5C 135.757,606.573 137.757,604.239 140.5,602.5C 142.23,606.18 141.23,608.846 137.5,610.5 Z M 139.5,622.5 C 141.379,622.393 141.712,622.893 140.5,624C 135.193,626.632 129.86,626.965 124.5,625C 129.841,626.071 134.841,625.238 139.5,622.5 Z"/></g>
<g><path style="opacity:0.173" fill="#a5a5a5" d="M 424.5,590.5 C 424.5,591.167 424.833,591.5 425.5,591.5C 425.158,592.338 424.492,592.672 423.5,592.5C 423.328,591.508 423.662,590.842 424.5,590.5 Z"/></g>
<g><path style="opacity:0.727" fill="#747474" d="M 403.5,599.5 C 402.662,599.842 402.328,600.508 402.5,601.5C 401.207,599.636 401.207,597.636 402.5,595.5C 403.429,596.689 403.762,598.022 403.5,599.5 Z"/></g>
<g><path style="opacity:0.298" fill="#999999" d="M 134.5,609.5 C 135.209,610.404 136.209,610.737 137.5,610.5C 136.292,611.782 134.958,611.782 133.5,610.5C 133.624,609.893 133.957,609.56 134.5,609.5 Z"/></g>
<g><path style="opacity:0.988" fill="#151515" d="M 278.5,734.5 C 279.289,734.217 279.956,733.717 280.5,733C 279.207,732.51 277.873,732.343 276.5,732.5C 269.264,731.107 262.264,728.941 255.5,726C 253.81,722.475 254.476,719.475 257.5,717C 268.384,712.455 279.718,709.622 291.5,708.5C 296.386,710.424 301.386,711.924 306.5,713C 308.978,714.938 309.145,717.105 307,719.5C 303.312,723.428 298.812,725.928 293.5,727C 294.649,728.604 294.649,730.27 293.5,732C 297.455,737.877 302.122,743.21 307.5,748C 312.926,751.129 318.093,754.629 323,758.5C 324.95,762.895 323.45,764.729 318.5,764C 313.442,759.943 308.108,756.276 302.5,753C 297.333,747.167 292.167,741.333 287,735.5C 278.788,742.861 271.622,750.861 265.5,759.5C 262.223,758.746 258.89,758.246 255.5,758C 254.446,756.612 254.28,755.112 255,753.5C 263.915,748.41 271.748,742.076 278.5,734.5 Z M 281.5,728.5 C 282.492,728.328 283.158,728.662 283.5,729.5C 282.075,731.031 281.409,730.698 281.5,728.5 Z"/></g>
<g><path style="opacity:0.118" fill="#b3b3b3" d="M 281.5,728.5 C 282.209,727.596 283.209,727.263 284.5,727.5C 284.672,728.492 284.338,729.158 283.5,729.5C 283.158,728.662 282.492,728.328 281.5,728.5 Z"/></g>
<g><path style="opacity:0.439" fill="#868686" d="M 276.5,732.5 C 277.873,732.343 279.207,732.51 280.5,733C 279.956,733.717 279.289,734.217 278.5,734.5C 277.833,733.833 277.167,733.167 276.5,732.5 Z"/></g>
</svg>
